# xmcd
#
# Track frame offsets: 
#        150
#        1879
#        23139
#        30499
#        45719
#        52174
#        68520
#        73045
#        90975
#        103440
#        106682
#        120560
#        137367
#        140557
#        159315
#        170709
#
# Disc length: 2287 seconds
#
# Revision: 0
# Processed by: cddbd v1.5.2PL0 Copyright (c) Steve Scherf et al.
# Submitted via: ExactAudioCopy v0.99pb5
#
DISCID=ce08ed10
DTITLE=Various Artist - Sounds of Louisiana
DYEAR=2003
DGENRE=Blues
TTITLE0=Louisiana Hot Sauce - Sounds of Louisiana Introduction
TTITLE1=Bo Dollis and The Wild Magnolias  - Coconut Milk
TTITLE2=Sonny Landreth  - Sonny Landreth Interview
TTITLE3=Sonny Landreth - The Promise Land
TTITLE4=Louisiana Hot Sauce  - Terrance Simien Interview
TTITLE5=Terrance Simient  - All Her Lovin'
TTITLE6=Marva Wright  - Marva Wright Interview
TTITLE7=Countdown Quartet  - Sadlack's Stomp
TTITLE8=Marva Wright - Rockin' Pnuemonia (I Got it Bad)
TTITLE9=Tab Benoit  - Tab Benoit Interview
TTITLE10=Tab Benoit  - Too Sweet for Me
TTITLE11=The Iguanas - Zacatecas
TTITLE12=John Cleary and The Absolute Monster Gentlemen  - Take My Love
TTITLE13=John Cleary - John Cleary Invterview
TTITLE14=Big Sandy and His Fly-Rite Boys - Bayou Blue
TTITLE15=Louisiana Hot Sauce - Sounds of Louisiana Outro
EXTD=
EXTT0=
EXTT1=
EXTT2=
EXTT3=
EXTT4=
EXTT5=
EXTT6=
EXTT7=
EXTT8=
EXTT9=
EXTT10=
EXTT11=
EXTT12=
EXTT13=
EXTT14=
EXTT15=
PLAYORDER=
